<?xml version="1.0" standalone="no"?>
<!DOCTYPE svg PUBLIC "-//W3C//DTD SVG 20010904//EN"
 "http://www.w3.org/TR/2001/REC-SVG-20010904/DTD/svg10.dtd">
<svg version="1.0" xmlns="http://www.w3.org/2000/svg"
 width="2048.000000pt" height="2048.000000pt" viewBox="0 0 2048.000000 2048.000000"
 preserveAspectRatio="xMidYMid meet">

<g transform="translate(0.000000,2048.000000) scale(0.100000,-0.100000)"
fill="#000000" stroke="none">
<path d="M11914 18107 c7 -17 136 -314 285 -660 l271 -627 -496 -676 -496
-677 -449 -508 -449 -509 90 -751 91 -750 503 -547 c276 -301 503 -551 504
-557 1 -5 -333 -164 -743 -353 l-744 -342 -862 537 -862 538 -394 407 -394
407 -267 -202 c-147 -111 -422 -319 -611 -462 l-345 -260 -658 -717 c-362
-394 -662 -719 -666 -721 -4 -3 -79 28 -167 68 -148 67 -161 72 -176 56 -9 -9
-213 -284 -454 -611 l-437 -595 -538 -540 -538 -540 1077 -1237 c592 -681
1084 -1245 1093 -1254 16 -16 16 -13 2 47 -8 35 -123 526 -255 1092 l-239
1027 179 702 c125 487 185 707 198 719 10 9 570 440 1246 958 l1227 941 705
-495 705 -495 1327 -120 c729 -66 1327 -121 1328 -122 1 -2 -207 -202 -461
-445 l-462 -443 -776 -30 -776 -31 -357 192 c-197 105 -387 207 -422 226 l-64
36 30 -54 c17 -30 178 -324 358 -654 179 -330 330 -603 334 -608 4 -4 441 -28
971 -52 530 -25 965 -47 967 -48 4 -4 64 -2269 61 -2273 -2 -1 -160 58 -353
131 -262 100 -353 130 -361 122 -9 -10 -448 -702 -1392 -2197 -58 -91 -96
-158 -86 -149 11 9 301 233 647 498 l627 481 1087 -60 c597 -33 1088 -59 1089
-57 2 2 18 468 34 1035 l31 1031 -226 855 -225 856 741 1032 c407 568 747
1039 754 1046 11 12 1916 614 1923 607 7 -6 151 -2230 144 -2236 -4 -4 -290
-132 -637 -284 -346 -153 -633 -281 -637 -284 -6 -5 174 -1793 198 -1961 6
-43 19 -13 333 772 179 449 329 820 332 823 4 3 340 66 749 140 408 73 743
135 746 137 2 2 -138 897 -311 1988 -173 1091 -313 1985 -312 1986 4 4 1443
-674 1458 -687 9 -8 169 -411 355 -896 187 -485 342 -879 345 -875 4 4 66 249
138 544 l131 538 -491 1252 c-271 689 -495 1256 -499 1261 -3 4 -530 68 -1171
142 l-1164 134 -661 -660 -661 -661 -959 722 c-528 397 -966 730 -975 739 -15
15 32 75 622 801 l639 785 451 707 c249 388 452 710 453 714 1 4 -345 218
-769 476 -423 258 -854 521 -958 584 -179 109 -187 112 -173 81z"/>
</g>
</svg>
